<?xml version="1.0" encoding="utf-8"?>
<!-- Generator: Adobe Illustrator 23.0.2, SVG Export Plug-In . SVG Version: 6.00 Build 0)  -->
<svg version="1.1" id="Warstwa_1" xmlns="http://www.w3.org/2000/svg" xmlns:xlink="http://www.w3.org/1999/xlink" x="0px" y="0px"
	 viewBox="0 0 28.35 28.35" style="enable-background:new 0 0 28.35 28.35;" xml:space="preserve">
<g>
	<path d="M4.71,19.27v-8.83c0-2.69,1.42-4.22,4.01-4.22s4.01,1.54,4.01,4.22v8.83c0,2.69-1.42,4.22-4.01,4.22S4.71,21.96,4.71,19.27
		z M10.08,19.44v-9.17c0-1.2-0.53-1.66-1.37-1.66c-0.84,0-1.37,0.46-1.37,1.66v9.17c0,1.2,0.53,1.66,1.37,1.66
		C9.55,21.09,10.08,20.64,10.08,19.44z"/>
	<path d="M14.5,6.45h2.64v7.08l3.36-7.08h2.64l-3.14,6.17l3.19,10.63h-2.76l-2.23-7.49l-1.06,2.14v5.35H14.5V6.45z"/>
</g>
</svg>
