<?xml version="1.0" encoding="utf-8"?>
<!-- Generator: Adobe Illustrator 23.0.2, SVG Export Plug-In . SVG Version: 6.00 Build 0)  -->
<svg version="1.1" id="Warstwa_1" xmlns="http://www.w3.org/2000/svg" xmlns:xlink="http://www.w3.org/1999/xlink" x="0px" y="0px"
	 viewBox="0 0 283.46 283.46" style="enable-background:new 0 0 283.46 283.46;" xml:space="preserve">
<g>
	<g>
		<path d="M-255.18-245.53c-13.48,0-24.44-10.96-24.44-24.44c0-13.48,10.96-24.44,24.44-24.44c13.48,0,24.44,10.96,24.44,24.44
			C-230.74-256.49-241.71-245.53-255.18-245.53z M-255.18-284.61c-8.07,0-14.64,6.57-14.64,14.64c0,8.07,6.57,14.64,14.64,14.64
			c8.07,0,14.64-6.57,14.64-14.64C-240.54-278.05-247.11-284.61-255.18-284.61z"/>
		<path d="M-182.91-266.95c0-1.98-0.14-3.98-0.41-5.91l-0.03-0.24c0-0.01,0-0.02,0-0.02c-5.8-40.48-38.17-71.69-78.72-75.9
			c-13.63-1.41-28.54-0.56-44.32,2.54c-21.65,4-44.98,17.03-69.35,38.72c-16.75,14.91-27.96,28.66-29.79,30.95
			c-2.07,2-9.72,10.59-9.72,28.05c0,1.12,0.02,2.26,0.06,3.39c-0.04,0.25-0.06,0.5-0.06,0.75c0,42.22,3.51,59.87,25.23,59.87
			c5.79,0,11.51-1.39,17.56-2.86c11.37-2.76,24.25-5.9,42.22-0.95c6.88,1.89,14.26,6.1,22.08,10.56
			c14.25,8.12,31.23,17.79,52.84,17.79c5.94,0,12.24-0.73,18.92-2.43c17.6-4.47,33.2-14.31,43.91-27.73l0.45-0.55
			c5.52-6.82,9.13-14.22,9.13-53.44c0-0.5-0.08-0.98-0.21-1.44c0.13-1.42,0.21-2.88,0.21-4.42V-266.95z M-398.44-269.4
			c0.31-0.24,0.47-0.43,0.72-0.75c0.45-0.57,45.7-57.49,93.22-66.25c0.02,0,0.04-0.01,0.06-0.01c14.79-2.91,28.69-3.72,41.31-2.41
			c35.86,3.72,64.49,31.33,69.62,67.15l0.03,0.21c0.21,1.48,0.31,3,0.31,4.51v16.74c0,10.1-3.93,16.81-7.23,20.67
			c-10.39,12.15-23.72,20.56-38.53,24.32c-26.98,6.85-46.73-4.41-64.16-14.33c-8.39-4.78-16.32-9.3-24.44-11.53
			c-7.89-2.17-14.95-2.98-21.32-2.98c-10.21,0-18.68,2.06-26.04,3.85c-5.68,1.38-10.58,2.57-15.14,2.57
			c-10.14,0-14.97-3.16-14.97-21.11C-405-263-399-268.88-398.44-269.4z"/>
	</g>
</g>
<g>
	<path d="M521.32-280.36c-0.41,2.43-0.78,4.83-1.14,7.18c-0.35,2.36-0.61,4.76-0.78,7.22c-0.77-0.23-1.51-0.45-2.24-0.66
		c-0.72-0.2-1.46-0.42-2.21-0.66c0.21-1.68,0.42-3.4,0.61-5.14s0.41-3.47,0.64-5.2c0.24-1.73,0.52-3.44,0.85-5.15
		c0.33-1.71,0.74-3.38,1.23-5.02c0.75,0.17,1.49,0.33,2.22,0.46c0.74,0.14,1.47,0.29,2.19,0.46c0.28,0.06,0.48,0.22,0.61,0.48
		c0.17,0.36,0.35,0.72,0.53,1.07c0.18,0.35,0.36,0.71,0.53,1.07c0.36,0.68,0.74,1.38,1.12,2.08s0.76,1.43,1.12,2.18
		c0.11-0.13,0.21-0.23,0.32-0.32c0.11-0.08,0.19-0.18,0.26-0.29c1.34-1.43,2.71-2.82,4.1-4.16c1.39-1.34,2.79-2.68,4.22-4
		c0.11-0.11,0.21-0.19,0.32-0.26c0.11-0.06,0.25-0.07,0.42-0.03c1.47,0.26,2.94,0.62,4.42,1.09c-0.3,1.58-0.62,3.25-0.98,5.01
		c-0.35,1.76-0.72,3.52-1.1,5.28c-0.38,1.76-0.77,3.48-1.17,5.17c-0.39,1.69-0.76,3.23-1.1,4.64c-0.73-0.23-1.44-0.47-2.13-0.7
		c-0.69-0.23-1.4-0.47-2.13-0.7c0.43-2.07,0.85-4.12,1.28-6.16c0.43-2.04,0.86-4.12,1.31-6.26c-0.11,0.11-0.2,0.19-0.27,0.24
		s-0.14,0.1-0.21,0.14c-0.9,0.96-1.79,1.91-2.67,2.85c-0.89,0.94-1.79,1.89-2.7,2.85c-0.28,0.32-0.63,0.44-1.06,0.35
		c-0.58-0.15-1.16-0.28-1.74-0.4s-1.17-0.23-1.74-0.34c-0.36-0.08-0.64-0.3-0.83-0.64c-0.28-0.51-0.55-1.02-0.82-1.54
		c-0.27-0.51-0.55-1.01-0.85-1.5c-0.06-0.11-0.12-0.21-0.18-0.3C521.51-280.06,521.43-280.19,521.32-280.36z"/>
	<path d="M552.49-289.77c-0.19,0.75-0.38,1.47-0.56,2.18s-0.37,1.42-0.56,2.14c-0.81,0.02-1.61,0.04-2.38,0.05
		c-0.78,0.01-1.57,0.03-2.38,0.05c-0.17,0.81-0.35,1.61-0.53,2.4c-0.18,0.79-0.37,1.6-0.56,2.43c0.85-0.04,1.69-0.09,2.51-0.14
		c0.82-0.05,1.66-0.1,2.51-0.14c-0.02,0.43-0.09,0.83-0.21,1.22s-0.23,0.77-0.34,1.15c-0.11,0.38-0.21,0.76-0.32,1.14
		c-0.11,0.37-0.21,0.76-0.32,1.17h-4.9c-0.19,0.77-0.38,1.53-0.58,2.29c-0.19,0.76-0.38,1.53-0.58,2.32
		c1.04-0.15,2.06-0.3,3.06-0.45c0.99-0.15,2-0.31,3.02-0.48c-0.19,0.88-0.35,1.6-0.46,2.18s-0.25,1.16-0.4,1.76
		c-0.04,0.19-0.11,0.34-0.21,0.45c-0.1,0.11-0.26,0.18-0.5,0.22c-1.13,0.19-2.25,0.4-3.36,0.61c-1.11,0.21-2.23,0.44-3.36,0.67
		c-0.3,0.04-0.55-0.01-0.77-0.16c-0.28-0.19-0.55-0.37-0.83-0.54c-0.28-0.17-0.57-0.35-0.86-0.54c-0.23-0.15-0.41-0.26-0.51-0.34
		c-0.11-0.07-0.17-0.15-0.19-0.22c-0.02-0.07-0.02-0.18,0.02-0.32c0.03-0.14,0.08-0.34,0.14-0.59c0.19-0.87,0.4-1.73,0.61-2.58
		c0.21-0.84,0.43-1.7,0.64-2.58c0.47-2,0.94-4,1.41-5.98c0.47-1.98,0.94-3.98,1.41-5.98c0.13-0.51,0.26-1.02,0.38-1.54
		c0.13-0.51,0.25-1.02,0.35-1.54c0.08-0.3,0.3-0.45,0.64-0.45c1.73,0,3.31-0.01,4.75-0.03
		C549.72-289.98,551.13-289.92,552.49-289.77z"/>
	<path d="M548.08-266.79c0.79-2.15,1.67-4.38,2.66-6.67c0.98-2.29,2-4.5,3.07-6.61c1.07-2.11,2.14-4.06,3.23-5.84
		s2.13-3.24,3.14-4.37c0.34,0.04,0.67,0.08,0.99,0.1c0.32,0.02,0.64,0.05,0.96,0.1c0.34,0.04,0.68,0.09,1.02,0.13
		c0.34,0.04,0.68,0.09,1.02,0.13c0.38,0.02,0.61,0.22,0.67,0.61c0.28,1.94,0.47,3.85,0.59,5.71c0.12,1.87,0.19,3.72,0.22,5.57
		c0.03,1.85,0.04,3.68,0.03,5.49c-0.01,1.81-0.02,3.63-0.02,5.44c-0.75-0.04-1.49-0.12-2.22-0.22c-0.74-0.11-1.49-0.18-2.26-0.22
		v-1.44c0-0.23-0.03-0.39-0.1-0.46c-0.06-0.07-0.21-0.1-0.45-0.08c-0.94,0.04-1.86,0.09-2.77,0.14c-0.91,0.05-1.82,0.1-2.74,0.14
		c-0.21,0.02-0.42,0.03-0.62,0.02c-0.2-0.01-0.43-0.02-0.69-0.02c-0.21,0.62-0.43,1.24-0.64,1.87c-0.21,0.63-0.44,1.27-0.67,1.94
		c-0.77-0.26-1.51-0.5-2.24-0.74C549.56-266.32,548.82-266.56,548.08-266.79z M561.23-273.8c-0.04-1.45-0.1-2.88-0.16-4.3
		c-0.06-1.42-0.12-2.86-0.16-4.34c-0.15,0.15-0.37,0.45-0.66,0.9c-0.29,0.45-0.61,0.98-0.96,1.58c-0.35,0.61-0.72,1.25-1.1,1.94
		c-0.38,0.68-0.74,1.33-1.06,1.95c-0.32,0.62-0.59,1.16-0.8,1.63c-0.21,0.47-0.33,0.78-0.35,0.93c0.87-0.04,1.74-0.09,2.61-0.14
		C559.45-273.71,560.33-273.76,561.23-273.8z"/>
	<path d="M567.43-266.79c0.72-3.5,1.45-7.04,2.18-10.62c0.72-3.58,1.39-7.04,1.98-10.37c-1.22-0.04-2.43-0.02-3.65,0.06
		c-1.22,0.09-2.44,0.16-3.68,0.22l0.58-4.26c0.3-0.06,0.91-0.13,1.84-0.19s2.02-0.12,3.26-0.18s2.58-0.1,3.98-0.13
		c1.41-0.03,2.73-0.05,3.97-0.06c1.24-0.01,2.31,0,3.23,0.02c0.92,0.02,1.51,0.06,1.79,0.13c-0.06,0.7-0.17,1.4-0.3,2.1
		c-0.14,0.69-0.31,1.4-0.53,2.13c-0.96-0.04-1.92-0.07-2.88-0.1c-0.96-0.02-1.93-0.01-2.91,0.03c-0.28,1.73-0.59,3.52-0.93,5.36
		c-0.34,1.85-0.7,3.7-1.09,5.55s-0.77,3.7-1.15,5.52c-0.38,1.82-0.77,3.6-1.15,5.33L567.43-266.79z"/>
	<path d="M526.76-251.43c0.55,0.98,1.1,1.94,1.63,2.88c0.53,0.94,1.08,1.9,1.63,2.88c-0.51,0.38-1.02,0.77-1.52,1.15
		c-0.5,0.38-1.02,0.78-1.55,1.18c-0.23-0.26-0.45-0.5-0.64-0.74c-0.19-0.23-0.41-0.47-0.64-0.7c-0.26,0.04-0.56,0.23-0.9,0.56
		c-0.34,0.33-0.69,0.74-1.06,1.23c-0.68,0.94-1.28,1.87-1.79,2.8c-0.51,0.93-0.89,1.81-1.14,2.66c-0.25,0.84-0.33,1.61-0.26,2.29
		c0.08,0.68,0.35,1.24,0.82,1.68c0.47,0.44,1.17,0.72,2.1,0.85c0.93,0.13,2.13,0.05,3.6-0.22c0.4-0.08,0.74-0.15,1.01-0.21
		c0.27-0.05,0.45-0.08,0.56-0.08c-0.08,0.73-0.19,1.44-0.32,2.14c-0.13,0.7-0.26,1.43-0.38,2.18c-0.75,0.21-1.56,0.37-2.43,0.48
		c-1.86,0.23-3.41,0.23-4.67,0c-1.26-0.23-2.27-0.64-3.02-1.22c-0.76-0.58-1.29-1.3-1.6-2.16c-0.31-0.86-0.44-1.81-0.4-2.83
		c0.04-1.02,0.24-2.1,0.58-3.23c0.34-1.13,0.78-2.26,1.33-3.38c0.54-1.12,1.16-2.2,1.86-3.23c0.69-1.03,1.41-1.98,2.16-2.83
		c0.85-0.96,1.71-1.8,2.58-2.51C525.15-250.53,525.97-251.07,526.76-251.43z"/>
	<path d="M542.83-226.5c-0.73-0.23-1.43-0.48-2.11-0.72c-0.68-0.25-1.38-0.5-2.08-0.75c0.06-0.75,0.18-1.6,0.35-2.58
		s0.36-1.96,0.58-2.98c0.21-1.01,0.42-2,0.62-2.98c0.2-0.97,0.37-1.83,0.5-2.58c-1.07,0.13-2.11,0.3-3.14,0.51
		c-1.02,0.21-2.08,0.37-3.17,0.48c-0.32,1.43-0.63,2.85-0.94,4.27c-0.31,1.42-0.62,2.86-0.94,4.34c-0.75-0.23-1.47-0.45-2.18-0.66
		s-1.4-0.41-2.08-0.62c0-0.08,0.06-0.44,0.18-1.07c0.12-0.63,0.28-1.43,0.48-2.4c0.2-0.97,0.43-2.07,0.69-3.3
		c0.26-1.23,0.52-2.47,0.8-3.74c0.28-1.27,0.55-2.52,0.82-3.74c0.27-1.23,0.51-2.33,0.74-3.31c0.22-0.98,0.42-1.79,0.58-2.43
		c0.16-0.64,0.26-1.01,0.3-1.12c0.7,0.15,1.42,0.3,2.14,0.46c0.72,0.16,1.46,0.33,2.21,0.5c-0.11,0.62-0.23,1.29-0.37,2
		c-0.14,0.71-0.29,1.44-0.45,2.16c-0.16,0.73-0.32,1.44-0.48,2.14c-0.16,0.7-0.3,1.38-0.43,2.02c1.11-0.17,2.17-0.34,3.18-0.51
		c1.01-0.17,2.03-0.28,3.06-0.32c0.3-1.09,0.59-2.19,0.86-3.3c0.28-1.11,0.54-2.26,0.8-3.46c0.75,0.21,1.48,0.42,2.19,0.62
		c0.71,0.2,1.45,0.42,2.19,0.66c-0.45,1.79-0.89,3.67-1.33,5.65c-0.44,1.97-0.86,3.94-1.28,5.89c-0.42,1.95-0.82,3.86-1.22,5.71
		S543.15-228.08,542.83-226.5z"/>
	<path d="M559.66-251.37c-0.19,0.75-0.38,1.47-0.56,2.18s-0.37,1.42-0.56,2.14c-0.81,0.02-1.61,0.04-2.38,0.05
		c-0.78,0.01-1.57,0.03-2.38,0.05c-0.17,0.81-0.35,1.61-0.53,2.4c-0.18,0.79-0.37,1.6-0.56,2.43c0.85-0.04,1.69-0.09,2.51-0.14
		c0.82-0.05,1.66-0.1,2.51-0.14c-0.02,0.43-0.09,0.83-0.21,1.22s-0.23,0.77-0.34,1.15c-0.11,0.38-0.21,0.76-0.32,1.14
		c-0.11,0.37-0.21,0.76-0.32,1.17h-4.9c-0.19,0.77-0.38,1.53-0.58,2.29c-0.19,0.76-0.38,1.53-0.58,2.32
		c1.04-0.15,2.06-0.3,3.06-0.45c0.99-0.15,2-0.31,3.02-0.48c-0.19,0.88-0.35,1.6-0.46,2.18s-0.25,1.16-0.4,1.76
		c-0.04,0.19-0.11,0.34-0.21,0.45c-0.1,0.11-0.26,0.18-0.5,0.22c-1.13,0.19-2.25,0.4-3.36,0.61c-1.11,0.21-2.23,0.44-3.36,0.67
		c-0.3,0.04-0.55-0.01-0.77-0.16c-0.28-0.19-0.55-0.37-0.83-0.54c-0.28-0.17-0.57-0.35-0.86-0.54c-0.23-0.15-0.41-0.26-0.51-0.34
		c-0.11-0.07-0.17-0.15-0.19-0.22c-0.02-0.07-0.02-0.18,0.02-0.32c0.03-0.14,0.08-0.34,0.14-0.59c0.19-0.87,0.4-1.73,0.61-2.58
		c0.21-0.84,0.43-1.7,0.64-2.58c0.47-2,0.94-4,1.41-5.98c0.47-1.98,0.94-3.98,1.41-5.98c0.13-0.51,0.26-1.02,0.38-1.54
		c0.13-0.51,0.25-1.02,0.35-1.54c0.08-0.3,0.3-0.45,0.64-0.45c1.73,0,3.31-0.01,4.75-0.03
		C556.89-251.58,558.29-251.52,559.66-251.37z"/>
	<path d="M569.07-251.43c0.55,0.98,1.1,1.94,1.63,2.88c0.53,0.94,1.08,1.9,1.63,2.88c-0.51,0.38-1.02,0.77-1.52,1.15
		c-0.5,0.38-1.02,0.78-1.55,1.18c-0.23-0.26-0.45-0.5-0.64-0.74c-0.19-0.23-0.41-0.47-0.64-0.7c-0.26,0.04-0.56,0.23-0.9,0.56
		c-0.34,0.33-0.69,0.74-1.06,1.23c-0.68,0.94-1.28,1.87-1.79,2.8c-0.51,0.93-0.89,1.81-1.14,2.66c-0.25,0.84-0.33,1.61-0.26,2.29
		c0.08,0.68,0.35,1.24,0.82,1.68c0.47,0.44,1.17,0.72,2.1,0.85c0.93,0.13,2.13,0.05,3.6-0.22c0.4-0.08,0.74-0.15,1.01-0.21
		c0.27-0.05,0.45-0.08,0.56-0.08c-0.08,0.73-0.19,1.44-0.32,2.14c-0.13,0.7-0.26,1.43-0.38,2.18c-0.75,0.21-1.56,0.37-2.43,0.48
		c-1.86,0.23-3.41,0.23-4.67,0c-1.26-0.23-2.27-0.64-3.02-1.22c-0.76-0.58-1.29-1.3-1.6-2.16c-0.31-0.86-0.44-1.81-0.4-2.83
		c0.04-1.02,0.24-2.1,0.58-3.23c0.34-1.13,0.78-2.26,1.33-3.38c0.54-1.12,1.16-2.2,1.86-3.23c0.69-1.03,1.41-1.98,2.16-2.83
		c0.85-0.96,1.71-1.8,2.58-2.51C567.45-250.53,568.28-251.07,569.07-251.43z"/>
	<path d="M569.64-229.83c0.96-3.63,1.95-7.21,2.98-10.74c1.02-3.53,1.97-7.12,2.85-10.77c0.75,0.26,1.48,0.51,2.19,0.75
		c0.71,0.25,1.45,0.49,2.19,0.72c-0.36,1.37-0.73,2.73-1.09,4.08c-0.36,1.35-0.73,2.74-1.09,4.14c1.88-1.34,3.71-2.68,5.5-4.02
		c1.79-1.33,3.56-2.73,5.31-4.18c0.53,0.51,1.06,1.02,1.57,1.54s0.99,1.08,1.44,1.7c-1.92,1.6-3.87,3.13-5.84,4.58
		c-1.97,1.45-3.97,2.91-6,4.38c1.34,0.79,2.71,1.46,4.11,2.02c1.4,0.56,2.8,1.15,4.21,1.79c-0.32,0.66-0.63,1.31-0.94,1.95
		s-0.62,1.29-0.94,1.95c-1.75-0.77-3.49-1.51-5.23-2.24c-1.74-0.73-3.44-1.61-5.1-2.66c-0.3,1.11-0.6,2.2-0.91,3.26
		c-0.31,1.07-0.61,2.17-0.91,3.3c-0.75-0.28-1.47-0.54-2.16-0.8S570.37-229.58,569.64-229.83z"/>
</g>
<path d="M625.81-264.3h-12.58l1.1-12.58l0.1-1.09h-1.09h-1.67h-0.92l-0.08,0.91l-1.12,12.76h-12.72h-0.92l-0.08,0.91l-0.15,1.67
	l-0.1,1.09h1.09h12.54l-1.1,12.55l-0.1,1.09h1.09h1.67h0.92l0.08-0.91l1.11-12.72h12.75h0.92l0.08-0.91l0.15-1.67l0.1-1.09H625.81z"
	/>
<g>
	<g>
		<path d="M463.76-252.02c-7.18,0-13.02-5.84-13.02-13.02c0-7.18,5.84-13.02,13.02-13.02c7.18,0,13.02,5.84,13.02,13.02
			C476.78-257.86,470.94-252.02,463.76-252.02z M463.76-272.84c-4.3,0-7.8,3.5-7.8,7.8c0,4.3,3.5,7.8,7.8,7.8c4.3,0,7.8-3.5,7.8-7.8
			C471.56-269.34,468.07-272.84,463.76-272.84z"/>
		<path d="M502.27-263.43c0-1.06-0.07-2.12-0.22-3.15l-0.02-0.13c0,0,0-0.01,0-0.01c-3.09-21.56-20.33-38.19-41.94-40.43
			c-7.26-0.75-15.2-0.3-23.61,1.35c-11.54,2.13-23.97,9.07-36.95,20.63c-8.92,7.95-14.89,15.27-15.87,16.49
			c-1.1,1.07-5.18,5.64-5.18,14.95c0,0.6,0.01,1.2,0.03,1.81c-0.02,0.13-0.03,0.26-0.03,0.4c0,22.49,1.87,31.9,13.44,31.9
			c3.08,0,6.13-0.74,9.36-1.53c6.06-1.47,12.92-3.14,22.49-0.51c3.66,1.01,7.6,3.25,11.77,5.62c7.59,4.32,16.64,9.48,28.15,9.48
			c3.17,0,6.52-0.39,10.08-1.29c9.38-2.38,17.68-7.63,23.39-14.77l0.24-0.29c2.94-3.63,4.87-7.58,4.87-28.47
			c0-0.27-0.04-0.52-0.11-0.77c0.07-0.75,0.11-1.54,0.11-2.35V-263.43z M387.44-264.73c0.16-0.13,0.25-0.23,0.38-0.4
			c0.24-0.31,24.34-30.63,49.66-35.29c0.01,0,0.02,0,0.03-0.01c7.88-1.55,15.28-1.98,22.01-1.28c19.11,1.98,34.36,16.69,37.09,35.77
			l0.02,0.11c0.11,0.79,0.17,1.6,0.17,2.4v8.92c0,5.38-2.09,8.96-3.85,11.01c-5.54,6.47-12.64,10.95-20.53,12.96
			c-14.37,3.65-24.9-2.35-34.18-7.64c-4.47-2.55-8.7-4.95-13.02-6.14c-4.2-1.16-7.96-1.59-11.36-1.59c-5.44,0-9.95,1.1-13.87,2.05
			c-3.02,0.74-5.64,1.37-8.07,1.37c-5.4,0-7.98-1.68-7.98-11.25C383.95-261.32,387.14-264.46,387.44-264.73z"/>
	</g>
</g>
<g>
	<path d="M172.67-267.45l0.1-18.74l-8.71,18.76h-1.39l-8.71-18.76l0.11,18.74l-1.6,0.02l-0.13-22.41h1.68l9.35,20.1l9.33-20.1h1.68
		l-0.11,22.41L172.67-267.45z"/>
	<path d="M185.9-283.91c1.09,0,2.1,0.21,3.04,0.61c0.91,0.4,1.71,0.98,2.4,1.73c0.66,0.75,1.17,1.63,1.52,2.64
		c0.35,1.01,0.53,2.11,0.53,3.3v0.8h-13.35c0.06,0.72,0.19,1.38,0.4,1.97c0.29,0.8,0.69,1.49,1.2,2.06c1.07,1.2,2.5,1.79,4.26,1.79
		c1.15,0,2.16-0.26,3.01-0.78c0.85-0.5,1.52-1.2,2.02-2.11l0.37-0.72l1.41,0.77l-0.37,0.7c-0.34,0.62-0.72,1.15-1.14,1.58
		c-0.4,0.43-0.9,0.83-1.49,1.2c-1.14,0.66-2.42,0.99-3.84,0.99c-1.09,0-2.1-0.21-3.04-0.61c-0.91-0.38-1.71-0.96-2.4-1.71
		c-0.66-0.74-1.17-1.6-1.52-2.61c-0.35-1.01-0.53-2.11-0.53-3.31c0-1.2,0.18-2.31,0.53-3.31c0.35-1.01,0.86-1.89,1.52-2.64
		c0.69-0.75,1.49-1.33,2.4-1.73c0.94-0.4,1.95-0.61,3.04-0.61H185.9z M181.64-280.52c-0.5,0.56-0.9,1.25-1.2,2.06
		c-0.21,0.59-0.34,1.25-0.4,1.97h11.72c-0.06-0.75-0.21-1.41-0.42-1.97c-0.27-0.82-0.67-1.5-1.2-2.06c-1.07-1.2-2.48-1.79-4.24-1.79
		S182.71-281.72,181.64-280.52z"/>
	<path d="M204.3-283.94c1.1,0,2.13,0.21,3.07,0.61c0.91,0.4,1.71,0.98,2.38,1.71c0.69,0.75,1.2,1.63,1.54,2.64
		c0.35,1.01,0.53,2.11,0.53,3.3v8.23h-1.6v-2.83c-0.18,0.24-0.32,0.42-0.43,0.53c-0.66,0.75-1.46,1.33-2.38,1.71
		c-0.94,0.4-1.97,0.61-3.09,0.61c-2.26,0-4.08-0.51-5.47-1.55c-0.64-0.48-1.14-1.04-1.47-1.7c-0.34-0.62-0.51-1.3-0.51-2.02
		c0-0.62,0.13-1.2,0.37-1.73c0.24-0.5,0.59-0.93,1.06-1.28c1.49-1.2,4.11-1.68,7.88-1.44c1.26,0.08,2.61,0.24,4.03,0.48
		c-0.06-0.66-0.19-1.25-0.38-1.78c-0.27-0.78-0.67-1.47-1.2-2.06c-1.07-1.2-2.5-1.79-4.26-1.79c-1.1,0-2.11,0.26-3.01,0.78
		c-0.86,0.51-1.54,1.23-2.02,2.14l-0.38,0.7l-1.41-0.75l0.37-0.7c0.3-0.58,0.69-1.1,1.14-1.58c0.46-0.48,0.96-0.88,1.49-1.18
		c1.12-0.67,2.4-1.01,3.83-1.01L204.3-283.94z M204.3-275.67c-0.8,0-1.54,0.05-2.19,0.14c-1.3,0.18-2.26,0.51-2.88,1.01
		c-0.54,0.43-0.82,1.02-0.82,1.76c0,0.94,0.45,1.76,1.34,2.45c1.1,0.82,2.61,1.23,4.53,1.23c1.79,0,3.22-0.59,4.29-1.78
		c0.94-1.07,1.47-2.48,1.58-4.21c-1.65-0.27-3.04-0.45-4.18-0.53c-0.78-0.05-1.34-0.06-1.68-0.06V-275.67z"/>
	<path d="M222.78-283.92v1.6h-5.2v8.87c0,0.69,0.1,1.31,0.29,1.87c0.18,0.56,0.43,1.02,0.75,1.39c0.66,0.77,1.54,1.15,2.64,1.15
		h1.54v1.6h-1.54c-0.8,0-1.52-0.14-2.16-0.45c-0.66-0.29-1.22-0.7-1.68-1.26c-0.46-0.54-0.82-1.18-1.06-1.92s-0.37-1.52-0.37-2.37
		v-16.41h1.6v5.94L222.78-283.92z"/>
	<path d="M162.06-251.38c1.01,0,1.97,0.14,2.9,0.42c0.9,0.27,1.73,0.67,2.5,1.2c0.77,0.53,1.44,1.17,2,1.92
		c0.56,0.74,1.02,1.58,1.39,2.53l0.3,0.74l-1.49,0.59l-0.3-0.74c-0.3-0.8-0.7-1.52-1.2-2.14c-0.5-0.62-1.04-1.15-1.65-1.58
		c-0.62-0.43-1.31-0.77-2.05-0.99c-0.74-0.24-1.55-0.35-2.43-0.35c-1.22,0-2.32,0.22-3.31,0.69c-0.98,0.43-1.82,1.07-2.53,1.9
		c-0.72,0.83-1.28,1.84-1.68,3.01c-0.4,1.23-0.61,2.56-0.61,3.99c0,1.42,0.21,2.75,0.61,3.99c0.4,1.17,0.96,2.18,1.68,3.01
		c0.71,0.83,1.55,1.47,2.53,1.9c0.99,0.46,2.1,0.69,3.31,0.69c0.88,0,1.7-0.11,2.43-0.35c0.74-0.22,1.42-0.56,2.05-0.99
		c0.61-0.43,1.15-0.96,1.65-1.58c0.5-0.62,0.9-1.34,1.2-2.15l0.3-0.74l1.49,0.59l-0.3,0.74c-0.37,0.94-0.83,1.79-1.39,2.53
		c-0.56,0.75-1.23,1.39-2,1.92c-0.77,0.53-1.6,0.93-2.5,1.2c-0.93,0.27-1.89,0.42-2.9,0.42c-1.42,0-2.75-0.27-3.97-0.82
		c-1.2-0.54-2.22-1.33-3.09-2.34c-0.85-0.98-1.5-2.16-1.97-3.55c-0.46-1.36-0.69-2.87-0.69-4.5s0.22-3.14,0.69-4.5
		c0.46-1.39,1.12-2.58,1.97-3.55c0.86-1.01,1.89-1.79,3.09-2.34c1.22-0.54,2.54-0.82,3.97-0.82V-251.38z"/>
	<path d="M176.82-242.87c0.14-0.19,0.26-0.34,0.34-0.42c0.61-0.7,1.36-1.25,2.27-1.65c0.91-0.38,1.87-0.58,2.88-0.58
		c0.99,0,1.95,0.19,2.9,0.58c0.88,0.4,1.63,0.94,2.26,1.65c0.62,0.7,1.1,1.54,1.44,2.5c0.34,0.94,0.5,2,0.5,3.15v8.6h-1.6v-8.6
		c0-0.98-0.13-1.86-0.4-2.63c-0.29-0.8-0.67-1.46-1.14-1.95c-1.01-1.14-2.34-1.7-3.99-1.7c-1.65,0-2.98,0.56-3.99,1.7
		c-0.5,0.53-0.86,1.18-1.12,1.95c-0.27,0.8-0.42,1.68-0.42,2.63v8.6h-1.6v-22.41h1.6L176.82-242.87z"/>
	<path d="M200.91-245.51c1.09,0,2.1,0.21,3.04,0.61c0.91,0.4,1.71,0.98,2.4,1.73c0.66,0.75,1.17,1.63,1.52,2.64
		c0.35,1.01,0.53,2.11,0.53,3.3v0.8h-13.35c0.06,0.72,0.19,1.38,0.4,1.97c0.29,0.8,0.69,1.49,1.2,2.06c1.07,1.2,2.5,1.79,4.26,1.79
		c1.15,0,2.16-0.26,3.01-0.78c0.85-0.5,1.52-1.2,2.02-2.11l0.37-0.72l1.41,0.77l-0.37,0.7c-0.34,0.62-0.72,1.15-1.14,1.58
		c-0.4,0.43-0.9,0.83-1.49,1.2c-1.14,0.66-2.42,0.99-3.84,0.99c-1.09,0-2.1-0.21-3.04-0.61c-0.91-0.38-1.71-0.96-2.4-1.71
		c-0.66-0.74-1.17-1.6-1.52-2.61c-0.35-1.01-0.53-2.11-0.53-3.31c0-1.2,0.18-2.31,0.53-3.31c0.35-1.01,0.86-1.89,1.52-2.64
		c0.69-0.75,1.49-1.33,2.4-1.73c0.94-0.4,1.95-0.61,3.04-0.61H200.91z M196.65-242.12c-0.5,0.56-0.9,1.25-1.2,2.06
		c-0.21,0.59-0.34,1.25-0.4,1.97h11.72c-0.06-0.75-0.21-1.41-0.42-1.97c-0.27-0.82-0.67-1.5-1.2-2.06c-1.07-1.2-2.48-1.79-4.24-1.79
		S197.72-243.32,196.65-242.12z"/>
	<path d="M219.39-245.48c1.42,0,2.71,0.34,3.83,1.01c0.56,0.34,1.06,0.74,1.49,1.2c0.43,0.43,0.82,0.96,1.15,1.58l0.37,0.7
		l-1.41,0.75l-0.37-0.7c-0.5-0.93-1.17-1.65-2.03-2.15c-0.88-0.53-1.89-0.78-3.01-0.78c-1.76,0-3.18,0.59-4.26,1.79
		c-0.5,0.56-0.9,1.25-1.2,2.06c-0.29,0.83-0.43,1.76-0.43,2.77s0.14,1.94,0.43,2.77c0.29,0.8,0.69,1.49,1.2,2.06
		c1.07,1.2,2.5,1.79,4.26,1.79c1.15,0,2.16-0.26,3.01-0.78c0.85-0.5,1.52-1.2,2.02-2.11l0.37-0.72l1.41,0.77l-0.37,0.7
		c-0.34,0.62-0.72,1.15-1.14,1.58c-0.4,0.43-0.9,0.83-1.49,1.2c-1.14,0.66-2.42,0.99-3.84,0.99c-1.09,0-2.1-0.21-3.04-0.61
		c-0.91-0.38-1.71-0.96-2.4-1.71c-0.66-0.74-1.17-1.6-1.52-2.61c-0.35-1.01-0.53-2.11-0.53-3.31c0-1.2,0.18-2.31,0.53-3.31
		c0.35-1.01,0.86-1.89,1.52-2.64c0.69-0.75,1.49-1.33,2.4-1.73c0.94-0.4,1.95-0.61,3.04-0.61L219.39-245.48z"/>
	<path d="M241.43-245.51h2.31l-7.54,7.28l7.54,9.19h-2.07l-6.63-8.07l-3.26,3.15v4.91h-1.6v-22.41h1.6v15.27L241.43-245.51z"/>
</g>
<polygon points="275.86,-260.23 262.19,-260.23 262.19,-273.9 260.52,-273.9 260.52,-260.23 246.88,-260.23 246.88,-258.56 
	260.52,-258.56 260.52,-244.92 262.19,-244.92 262.19,-258.56 275.86,-258.56 "/>
<g>
	<g>
		<path d="M97.89-254.4c-7.18,0-13.02-5.84-13.02-13.02c0-7.18,5.84-13.02,13.02-13.02c7.18,0,13.02,5.84,13.02,13.02
			C110.91-260.24,105.07-254.4,97.89-254.4z M97.89-275.22c-4.3,0-7.8,3.5-7.8,7.8c0,4.3,3.5,7.8,7.8,7.8c4.3,0,7.8-3.5,7.8-7.8
			C105.69-271.72,102.19-275.22,97.89-275.22z"/>
		<path d="M136.39-265.81c0-1.06-0.07-2.12-0.22-3.15l-0.02-0.13c0,0,0-0.01,0-0.01c-3.09-21.56-20.33-38.19-41.94-40.43
			c-7.26-0.75-15.2-0.3-23.61,1.35c-11.54,2.13-23.97,9.07-36.95,20.63c-8.92,7.95-14.89,15.27-15.87,16.49
			c-1.1,1.07-5.18,5.64-5.18,14.95c0,0.6,0.01,1.2,0.03,1.81c-0.02,0.13-0.03,0.26-0.03,0.4c0,22.49,1.87,31.9,13.44,31.9
			c3.08,0,6.13-0.74,9.36-1.53c6.06-1.47,12.92-3.14,22.49-0.51c3.66,1.01,7.6,3.25,11.77,5.62c7.59,4.32,16.64,9.48,28.15,9.48
			c3.17,0,6.52-0.39,10.08-1.29c9.38-2.38,17.69-7.63,23.39-14.77l0.24-0.29c2.94-3.63,4.87-7.58,4.87-28.47
			c0-0.27-0.04-0.52-0.11-0.77c0.07-0.75,0.11-1.54,0.11-2.35V-265.81z M21.57-267.12c0.16-0.13,0.25-0.23,0.38-0.4
			c0.24-0.31,24.34-30.63,49.66-35.29c0.01,0,0.02,0,0.03-0.01c7.88-1.55,15.28-1.98,22.01-1.28c19.11,1.98,34.36,16.69,37.09,35.77
			l0.02,0.11c0.11,0.79,0.17,1.6,0.17,2.4v8.92c0,5.38-2.09,8.96-3.85,11.01c-5.54,6.47-12.64,10.95-20.53,12.96
			c-14.37,3.65-24.9-2.35-34.18-7.64c-4.47-2.55-8.7-4.95-13.02-6.14c-4.2-1.16-7.96-1.59-11.36-1.59c-5.44,0-9.95,1.1-13.87,2.05
			c-3.02,0.74-5.64,1.37-8.07,1.37c-5.4,0-7.98-1.68-7.98-11.25C18.07-263.7,21.27-266.84,21.57-267.12z"/>
	</g>
</g>
<g>
	<g>
		<path d="M171.84,120.33c-9.24,0-16.76-7.52-16.76-16.76c0-9.24,7.52-16.76,16.76-16.76c9.24,0,16.76,7.52,16.76,16.76
			C188.61,112.81,181.09,120.33,171.84,120.33z M171.84,93.52c-5.54,0-10.04,4.51-10.04,10.04c0,5.54,4.51,10.04,10.04,10.04
			c5.54,0,10.04-4.51,10.04-10.04C181.89,98.03,177.38,93.52,171.84,93.52z"/>
		<path d="M221.42,105.64c0-1.36-0.1-2.73-0.28-4.06l-0.02-0.16c0-0.01,0-0.01,0-0.02c-3.98-27.76-26.18-49.17-53.99-52.06
			c-9.35-0.97-19.57-0.38-30.4,1.74c-14.85,2.74-30.85,11.68-47.57,26.56C77.66,87.88,69.98,97.3,68.72,98.88
			c-1.42,1.38-6.67,7.27-6.67,19.24c0,0.77,0.01,1.55,0.04,2.33c-0.02,0.17-0.04,0.34-0.04,0.52c0,28.96,2.4,41.07,17.31,41.07
			c3.97,0,7.89-0.95,12.05-1.96c7.8-1.9,16.63-4.04,28.96-0.65c4.72,1.3,9.78,4.19,15.15,7.24c9.77,5.57,21.42,12.2,36.24,12.2
			c4.08,0,8.39-0.5,12.98-1.66c12.07-3.06,22.77-9.82,30.12-19.02l0.31-0.38c3.78-4.68,6.27-9.75,6.27-36.66
			c0-0.34-0.05-0.67-0.14-0.99c0.09-0.97,0.14-1.98,0.14-3.03V105.64z M73.58,103.95c0.21-0.17,0.32-0.29,0.49-0.51
			c0.31-0.39,31.34-39.43,63.94-45.44c0.01,0,0.03-0.01,0.04-0.01c10.14-1.99,19.68-2.55,28.33-1.65
			c24.6,2.55,44.24,21.49,47.75,46.06l0.02,0.14c0.14,1.02,0.22,2.06,0.22,3.09v11.48c0,6.93-2.7,11.53-4.96,14.18
			c-7.13,8.33-16.27,14.1-26.43,16.68c-18.51,4.7-32.05-3.02-44.01-9.83c-5.76-3.28-11.19-6.38-16.76-7.91
			c-5.41-1.49-10.25-2.04-14.63-2.04c-7,0-12.81,1.41-17.86,2.64c-3.89,0.95-7.26,1.76-10.38,1.76c-6.96,0-10.27-2.17-10.27-14.48
			C69.09,108.35,73.2,104.31,73.58,103.95z"/>
	</g>
</g>
<g>
	<polygon points="270.96,214.87 253.36,214.87 253.36,197.27 251.2,197.27 251.2,214.87 233.65,214.87 233.65,217.02 251.2,217.02 
		251.2,234.57 253.36,234.57 253.36,217.02 270.96,217.02 	"/>
	<g>
		<path d="M39.07,231.26l0.14-25.31l-11.75,25.31h-1.55l-11.75-25.31l0.14,25.31h-1.65l-0.16-28.85h1.83L26.69,229l12.37-26.58h1.83
			l-0.17,28.85H39.07z"/>
		<path d="M55.63,210.22c1.38,0,2.68,0.25,3.9,0.76c1.17,0.51,2.18,1.24,3.03,2.16c0.84,0.95,1.5,2.06,1.96,3.36
			c0.45,1.3,0.68,2.72,0.68,4.25v0.82H47.71c0.06,0.95,0.25,1.9,0.56,2.87c0.39,1.09,0.93,2.02,1.61,2.78
			c1.44,1.61,3.34,2.41,5.71,2.41c1.55,0,2.91-0.35,4.08-1.05c1.15-0.68,2.06-1.65,2.72-2.91l0.39-0.72l1.46,0.76l-0.39,0.74
			c-0.39,0.74-0.87,1.4-1.44,2c-0.56,0.6-1.19,1.11-1.9,1.53c-1.46,0.84-3.09,1.28-4.9,1.28c-1.38,0-2.68-0.25-3.9-0.76
			c-1.17-0.52-2.18-1.24-3.05-2.19c-0.82-0.93-1.46-2.04-1.94-3.36c-0.45-1.28-0.68-2.68-0.68-4.22c0-1.53,0.23-2.95,0.68-4.24
			c0.47-1.32,1.11-2.43,1.94-3.36c0.89-0.97,1.9-1.69,3.03-2.18c1.22-0.52,2.51-0.76,3.9-0.76L55.63,210.22z M49.92,214.28
			c-0.68,0.76-1.22,1.69-1.61,2.78c-0.31,0.97-0.49,1.94-0.56,2.91h15.79c-0.06-1.05-0.25-2.02-0.56-2.91
			c-0.37-1.07-0.91-2-1.61-2.78c-1.46-1.61-3.38-2.41-5.75-2.41C53.28,211.87,51.38,212.68,49.92,214.28z"/>
		<path d="M79.29,210.24c1.38,0,2.68,0.25,3.9,0.76c1.17,0.52,2.18,1.24,3.03,2.16c0.84,0.95,1.5,2.06,1.96,3.36
			c0.45,1.3,0.68,2.72,0.68,4.24v10.53h-1.65v-4.2c-0.27,0.43-0.58,0.84-0.93,1.26c-0.82,0.93-1.83,1.65-3.05,2.18
			c-1.22,0.52-2.53,0.76-3.96,0.76c-2.95,0-5.3-0.66-7.05-1.98c-0.82-0.64-1.44-1.36-1.88-2.16c-0.43-0.82-0.64-1.67-0.64-2.53
			c0-0.78,0.16-1.5,0.47-2.16c0.31-0.62,0.74-1.15,1.3-1.61c1.92-1.55,5.3-2.16,10.16-1.85c1.71,0.12,3.54,0.35,5.5,0.7
			c-0.08-0.97-0.27-1.85-0.56-2.68c-0.37-1.07-0.91-2-1.61-2.78c-1.46-1.61-3.38-2.41-5.75-2.41c-1.5,0-2.84,0.35-4.02,1.05
			c-1.17,0.68-2.08,1.65-2.74,2.88l-0.39,0.72l-1.44-0.76l0.39-0.74c0.39-0.74,0.87-1.4,1.44-2c0.56-0.6,1.2-1.11,1.9-1.53
			c1.42-0.84,3.05-1.28,4.88-1.28L79.29,210.24z M79.25,220.67c-3.19,0-5.44,0.52-6.74,1.55c-0.76,0.64-1.15,1.46-1.15,2.47
			c0,1.3,0.62,2.41,1.85,3.34c1.48,1.09,3.5,1.65,6.06,1.65c2.43,0,4.35-0.8,5.77-2.41c0.68-0.76,1.22-1.69,1.61-2.78
			c0.31-0.93,0.5-1.94,0.56-3.03c-1.85-0.37-3.75-0.62-5.67-0.74c-1.05-0.06-1.79-0.08-2.25-0.08L79.25,220.67z"/>
		<path d="M102.63,210.2v1.65h-6.8v11.81c0,0.91,0.12,1.75,0.37,2.51c0.25,0.72,0.6,1.34,1.03,1.85c0.93,1.05,2.12,1.59,3.58,1.59
			h1.79v1.65h-1.79c-0.99,0-1.89-0.19-2.72-0.56c-0.8-0.37-1.5-0.91-2.1-1.61c-0.6-0.68-1.05-1.48-1.36-2.43
			c-0.31-0.97-0.45-1.98-0.45-3.03v-21.23h1.65v7.77L102.63,210.2z"/>
		<path d="M119.63,202.5c1.3,0,2.53,0.18,3.71,0.54c1.15,0.35,2.23,0.87,3.21,1.55c1.01,0.7,1.85,1.53,2.56,2.47
			c0.72,0.93,1.32,2,1.81,3.24l0.31,0.76l-1.53,0.6l-0.31-0.76c-0.84-2.14-2.12-3.81-3.83-4.99c-1.71-1.17-3.69-1.77-5.94-1.77
			c-1.59,0-3.07,0.31-4.43,0.91c-1.3,0.6-2.43,1.44-3.4,2.53c-0.95,1.11-1.69,2.45-2.21,4.02c-0.54,1.61-0.8,3.38-0.8,5.3
			c0,1.92,0.27,3.69,0.8,5.3c0.52,1.57,1.26,2.91,2.21,4.02c0.97,1.09,2.1,1.94,3.4,2.53c1.36,0.6,2.84,0.91,4.43,0.91
			c2.25,0,4.22-0.6,5.94-1.77c1.71-1.18,2.99-2.84,3.83-4.99l0.31-0.76l1.53,0.6l-0.31,0.76c-0.47,1.22-1.07,2.31-1.79,3.26
			c-0.72,0.95-1.57,1.77-2.55,2.45c-0.99,0.68-2.06,1.19-3.21,1.55c-1.18,0.35-2.41,0.54-3.71,0.54c-1.83,0-3.54-0.35-5.11-1.05
			c-1.55-0.7-2.87-1.69-3.96-2.99c-1.09-1.26-1.94-2.78-2.54-4.57c-0.6-1.75-0.89-3.69-0.89-5.81c0-2.12,0.29-4.06,0.89-5.81
			c0.6-1.79,1.44-3.32,2.54-4.57c1.09-1.3,2.41-2.29,3.96-2.99c1.57-0.7,3.28-1.05,5.11-1.05L119.63,202.5z"/>
		<path d="M138.04,214.12c0.23-0.37,0.52-0.74,0.84-1.11c0.8-0.91,1.77-1.61,2.89-2.08c1.13-0.49,2.37-0.74,3.71-0.74
			c1.34,0,2.58,0.25,3.71,0.74c1.09,0.47,2.06,1.18,2.91,2.1c0.8,0.93,1.42,2,1.83,3.21c0.43,1.22,0.64,2.56,0.64,4.02v11.03h-1.65
			v-11.03c0-1.24-0.19-2.41-0.54-3.5c-0.35-1.01-0.87-1.9-1.55-2.66c-1.36-1.5-3.15-2.27-5.36-2.27c-2.23,0-4.02,0.76-5.38,2.27
			c-0.66,0.76-1.15,1.65-1.5,2.64c-0.37,1.07-0.56,2.25-0.56,3.5v11.03h-1.65v-28.85h1.65V214.12z"/>
		<path d="M169.29,210.22c1.38,0,2.68,0.25,3.9,0.76c1.17,0.51,2.18,1.24,3.03,2.16c0.84,0.95,1.5,2.06,1.96,3.36
			c0.45,1.3,0.68,2.72,0.68,4.25v0.82h-17.48c0.06,0.95,0.25,1.9,0.56,2.87c0.39,1.09,0.93,2.02,1.61,2.78
			c1.44,1.61,3.34,2.41,5.71,2.41c1.55,0,2.91-0.35,4.08-1.05c1.15-0.68,2.06-1.65,2.72-2.91l0.39-0.72l1.46,0.76l-0.39,0.74
			c-0.39,0.74-0.87,1.4-1.44,2c-0.56,0.6-1.19,1.11-1.9,1.53c-1.46,0.84-3.09,1.28-4.9,1.28c-1.38,0-2.68-0.25-3.89-0.76
			c-1.18-0.52-2.19-1.24-3.05-2.19c-0.82-0.93-1.46-2.04-1.94-3.36c-0.45-1.28-0.68-2.68-0.68-4.22c0-1.53,0.23-2.95,0.68-4.24
			c0.47-1.32,1.11-2.43,1.94-3.36c0.89-0.97,1.9-1.69,3.03-2.18c1.22-0.52,2.51-0.76,3.9-0.76L169.29,210.22z M163.59,214.28
			c-0.68,0.76-1.22,1.69-1.61,2.78c-0.31,0.97-0.49,1.94-0.56,2.91h15.79c-0.06-1.05-0.25-2.02-0.56-2.91
			c-0.37-1.07-0.91-2-1.61-2.78c-1.46-1.61-3.38-2.41-5.75-2.41C166.94,211.87,165.05,212.68,163.59,214.28z"/>
		<path d="M192.92,210.22c1.81,0,3.44,0.43,4.9,1.28c0.7,0.41,1.34,0.93,1.9,1.53c0.58,0.6,1.05,1.26,1.44,2l0.39,0.74l-1.46,0.76
			l-0.39-0.72c-0.66-1.26-1.57-2.23-2.72-2.91c-1.17-0.7-2.53-1.05-4.06-1.05c-2.35,0-4.25,0.8-5.71,2.41
			c-0.68,0.76-1.22,1.69-1.61,2.78c-0.39,1.15-0.58,2.39-0.58,3.71c0,1.3,0.19,2.53,0.58,3.69c0.39,1.09,0.93,2.02,1.61,2.78
			c1.44,1.61,3.34,2.41,5.71,2.41c1.55,0,2.91-0.35,4.08-1.05c1.15-0.68,2.06-1.65,2.72-2.91l0.39-0.72l1.46,0.76l-0.39,0.74
			c-0.39,0.74-0.87,1.4-1.44,2c-0.56,0.6-1.19,1.11-1.9,1.53c-1.46,0.84-3.09,1.28-4.9,1.28c-1.38,0-2.68-0.25-3.9-0.76
			c-1.17-0.52-2.18-1.24-3.05-2.19c-0.82-0.93-1.46-2.04-1.94-3.36c-0.45-1.28-0.68-2.68-0.68-4.22c0-1.53,0.23-2.95,0.68-4.24
			c0.47-1.32,1.11-2.43,1.94-3.36c0.89-0.97,1.9-1.69,3.03-2.18c1.22-0.52,2.51-0.76,3.9-0.76V210.22z"/>
		<path d="M221.27,210.18h2.39l-9.66,9.34l9.66,11.75h-2.14l-8.72-10.61l-4.45,4.31v6.31h-1.65v-28.85h1.65v20.26L221.27,210.18z"/>
	</g>
</g>
</svg>
